<svg width="32" height="32" viewBox="0 0 32 32" fill="none" xmlns="http://www.w3.org/2000/svg">
<circle cx="16" cy="16" r="16" fill="#0D28A6"/>
<path d="M25.1667 8.49999C24.3687 9.06289 23.4851 9.49341 22.55 9.77499C22.0481 9.19791 21.3811 8.7889 20.6392 8.60326C19.8973 8.41762 19.1162 8.46432 18.4017 8.73703C17.6872 9.00975 17.0737 9.49532 16.6442 10.1281C16.2146 10.7608 15.9897 11.5103 16 12.275V13.1083C14.5355 13.1463 13.0844 12.8215 11.7758 12.1629C10.4673 11.5042 9.34193 10.5322 8.5 9.33332C8.5 9.33332 5.16667 16.8333 12.6667 20.1667C10.9504 21.3316 8.90597 21.9158 6.83334 21.8333C14.3333 26 23.5 21.8333 23.5 12.25C23.4992 12.0179 23.4769 11.7863 23.4333 11.5583C24.2838 10.7196 24.884 9.66058 25.1667 8.49999V8.49999Z" stroke="white" stroke-linecap="round" stroke-linejoin="round"/>
</svg>
